<?xml version="1.0" encoding="UTF-8"?>
<svg id="Layer_2" data-name="Layer 2" xmlns="http://www.w3.org/2000/svg" viewBox="0 0 293 204">
  <defs>
    <style>
      .cls-1 {
        fill: #ffd45c;
      }

      .cls-2 {
        fill: #666;
      }
    </style>
  </defs>
  <g id="Layer_1-2" data-name="Layer 1">
    <rect class="cls-1" y="0" width="293" height="204" rx="31.77" ry="31.77"/>
    <rect class="cls-2" x="53" y="24" width="97" height="22" rx="10.48" ry="10.48"/>
    <path class="cls-2" d="m134.66,54h-66.32c-8.47,0-15.34,6.87-15.34,15.34v96.32c0,8.47,6.87,15.34,15.34,15.34h66.32c8.47,0,15.34-6.87,15.34-15.34v-96.32c0-8.47-6.87-15.34-15.34-15.34Zm-52.66,95.03c0,3.3-2.67,5.97-5.97,5.97h-4.05c-3.3,0-5.97-2.67-5.97-5.97v-64.05c0-3.3,2.67-5.97,5.97-5.97h4.05c3.3,0,5.97,2.67,5.97,5.97v64.05Zm29,0c0,3.3-2.67,5.97-5.97,5.97h-6.05c-3.3,0-5.97-2.67-5.97-5.97v-64.05c0-3.3,2.67-5.97,5.97-5.97h6.05c3.3,0,5.97,2.67,5.97,5.97v64.05Zm27,0c0,3.3-2.67,5.97-5.97,5.97h-4.05c-3.3,0-5.97-2.67-5.97-5.97v-64.05c0-3.3,2.67-5.97,5.97-5.97h4.05c3.3,0,5.97,2.67,5.97,5.97v64.05Z"/>
    <path class="cls-2" d="m212.32,147h-7.98c-1.92,0-3.49-1.55-3.51-3.47,0-.02,0-.04,0-.06-.09-8.39-.33-30.69-.33-40.33v-3.99c0-1.94,1.57-3.51,3.51-3.51h3.99c11.86,0,29.5-9.3,29.5-21.95s-17.64-23.95-29.5-23.95c-10.87,0-19.88,8.66-21.31,19.85-.22,1.76-1.7,3.1-3.48,3.1h-8.03c-2.07,0-3.7-1.79-3.5-3.86,1.86-19.12,17.44-34.1,36.31-34.1,20.13,0,44.5,18.02,44.5,38.95,0,17.29-19.18,30.92-34.43,35.48-1.5.45-2.54,1.81-2.53,3.38.07,10.65.22,24.54.28,30.76,0,.05,0,.1,0,.15.02,1.95-1.56,3.54-3.51,3.54Z"/>
    <circle class="cls-2" cx="208" cy="163" r="8"/>
  </g>
</svg>